<svg xmlns="http://www.w3.org/2000/svg" viewBox="0 0 568 501" fill="#0085ff">
  <path d="M123.121 33.664C188.241 82.553 258.281 181.681 284 234.873C309.719 181.681 379.759 82.553 444.879 33.664C491.866-1.612 568-28.906 568 57.947C568 75.292 558.055 203.659 552.222 224.501C531.947 296.954 458.067 315.434 392.347 304.249C507.222 323.8 536.444 388.56 473.333 453.32C353.473 576.312 301.061 422.461 287.631 383.039C285.169 375.073 284.049 371.117 284 372.789C283.951 371.117 282.831 375.073 280.369 383.039C266.939 422.461 214.527 576.312 94.667 453.32C31.556 388.56 60.778 323.8 175.653 304.249C109.933 315.434 36.053 296.954 15.778 224.501C9.944 203.659 0 75.292 0 57.947C0-28.906 76.135-1.612 123.121 33.664Z"/>
</svg>
